<?xml version="1.0" encoding="utf-8"?>
<!-- Generator: Adobe Illustrator 27.5.0, SVG Export Plug-In . SVG Version: 6.00 Build 0)  -->
<svg version="1.1" id="Layer_1" xmlns="http://www.w3.org/2000/svg" xmlns:xlink="http://www.w3.org/1999/xlink" x="0px" y="0px"
	 viewBox="0 0 1024 1024" style="enable-background:new 0 0 1024 1024;" xml:space="preserve">
<style type="text/css">
	.st0{fill:#FFFFFF;}
</style>
<path class="st0" d="M507.9,264.2c73.7,0,133.1,59.4,133.1,133.1v33.8c-44-5.1-89.1-7.2-133.1-7.2s-89.1,2-133.1,7.2v-33.8
	C374.8,324.6,434.2,264.2,507.9,264.2z M749.6,653.3l13.3-116.7c29.7,5.1,52.2,29.7,52.2,57.3C815.1,626.7,785.4,653.3,749.6,653.3z
	 M265.2,653.3c-35.8,0-65.5-26.6-65.5-59.4c0-28.7,22.5-52.2,52.2-57.3L265.2,653.3L265.2,653.3z M703.5,459.8
	c-67.6-7.2-132.1-10.2-194.6-10.2s-128,3.1-194.6,10.2c-22.5,2-38.9,22.5-35.8,44L299,702.5c2,18.4,16.4,33.8,35.8,35.8
	c57.3,7.2,115.7,10.2,175.1,10.2s117.8-3.1,175.1-10.2c18.4-2,33.8-17.4,35.8-35.8l20.5-198.7C741.4,481.3,726,461.8,703.5,459.8
	L703.5,459.8z M395.3,640c-16.4,0-28.7-16.4-28.7-37.9s13.3-37.9,28.7-37.9s28.7,16.4,28.7,37.9S411.6,640,395.3,640z M566.3,682
	c0,2-1,4.1-2,5.1s-3.1,2-5.1,2H457.7c-2,0-4.1-1-5.1-2s-2-3.1-2-5.1v-18.4c0-4.1,3.1-7.2,7.2-7.2h2c4.1,0,7.2,3.1,7.2,7.2v9.2h82.9
	v-9.2c0-4.1,3.1-7.2,7.2-7.2h2c4.1,0,7.2,3.1,7.2,7.2L566.3,682L566.3,682z M620.5,640c-16.4,0-28.7-16.4-28.7-37.9
	s13.3-37.9,28.7-37.9s28.7,16.4,28.7,37.9S636.9,640,620.5,640z"/>
</svg>
