<?xml version="1.0" encoding="utf-8"?>
<!-- Generator: Adobe Illustrator 27.5.0, SVG Export Plug-In . SVG Version: 6.00 Build 0)  -->
<svg version="1.1" id="Layer_1" xmlns="http://www.w3.org/2000/svg" xmlns:xlink="http://www.w3.org/1999/xlink" x="0px" y="0px"
	 viewBox="0 0 24 24" style="enable-background:new 0 0 24 24;" xml:space="preserve">
<style type="text/css">
	.st0{fill:#E2E4E8;stroke:#E2E4E8;stroke-width:2;stroke-linecap:round;stroke-linejoin:round;}
	.st1{fill:#FFFFFF;stroke:#FFFFFF;stroke-width:0.75;stroke-linecap:round;stroke-linejoin:round;}
</style>
<path class="st0" d="M2,7.7C2,6.2,3.2,5,4.7,5c0.8,0,1.5-0.5,1.7-1.2l0.1-0.3c0-0.1,0.1-0.2,0.1-0.2c0.3-0.7,1-1.2,1.7-1.3
	c0.1,0,0.1,0,0.3,0h6.8c0.1,0,0.2,0,0.3,0c0.8,0,1.4,0.5,1.7,1.3c0,0.1,0,0.1,0.1,0.2l0.1,0.3C17.8,4.5,18.5,5,19.3,5
	C20.8,5,22,6.2,22,7.7v8.5c0,1.7,0,2.5-0.3,3.2c-0.3,0.6-0.7,1-1.3,1.3C19.7,21,18.9,21,17.2,21H6.8c-1.7,0-2.5,0-3.2-0.3
	c-0.6-0.3-1-0.7-1.3-1.3C2,18.7,2,17.9,2,16.2V7.7z"/>
<path class="st1" d="M12,16.5c2.5,0,4.5-2,4.5-4.5c0-2.5-2-4.5-4.5-4.5c-2.5,0-4.5,2-4.5,4.5C7.5,14.5,9.5,16.5,12,16.5z"/>
</svg>
