<?xml version="1.0" encoding="utf-8"?>
<!-- Generator: Adobe Illustrator 27.5.0, SVG Export Plug-In . SVG Version: 6.00 Build 0)  -->
<svg version="1.1" id="Layer_1" xmlns="http://www.w3.org/2000/svg" xmlns:xlink="http://www.w3.org/1999/xlink" x="0px" y="0px"
	 viewBox="0 0 24 24" style="enable-background:new 0 0 24 24;" xml:space="preserve">
<style type="text/css">
	.st0{fill:#0D53FB;stroke:#0D53FB;stroke-width:2;stroke-linecap:round;stroke-linejoin:round;}
	.st1{fill:#FFFFFF;stroke:#0D53FB;stroke-width:2;stroke-linecap:round;stroke-linejoin:round;}
</style>
<path class="st0" d="M12,22c5.5,0,10-4.5,10-10S17.5,2,12,2S2,6.5,2,12S6.5,22,12,22z"/>
<path class="st1" d="M16.1,6.5c0.7-0.3,1-0.3,1.3-0.3c0.1,0.1,0.4,0.3,0.4,0.4c0.1,0.3,0,0.6-0.3,1.3l-2.2,6.7
	c0,0.1-0.1,0.3-0.1,0.4S15,15.3,15,15.3c-0.1,0-0.1,0.1-0.4,0.1l-6.7,2.2c-0.7,0.3-1,0.3-1.3,0.3c-0.1-0.1-0.4-0.3-0.4-0.4
	c-0.1-0.3,0-0.6,0.3-1.3l2.2-6.7c0-0.1,0.1-0.3,0.1-0.4s0.1-0.1,0.1-0.1C9,8.8,9,8.7,9.3,8.7L16.1,6.5z"/>
</svg>
