<?xml version="1.0" encoding="utf-8"?>
<!-- Generator: Adobe Illustrator 27.5.0, SVG Export Plug-In . SVG Version: 6.00 Build 0)  -->
<svg version="1.1" id="Layer_1" xmlns="http://www.w3.org/2000/svg" xmlns:xlink="http://www.w3.org/1999/xlink" x="0px" y="0px"
	 viewBox="0 0 24 24" style="enable-background:new 0 0 24 24;" xml:space="preserve">
<style type="text/css">
	.st0{fill:none;stroke:#79859A;stroke-width:2;stroke-linecap:round;stroke-linejoin:round;}
</style>
<path class="st0" d="M12,22c5.5,0,10-4.5,10-10S17.5,2,12,2S2,6.5,2,12S6.5,22,12,22z"/>
<path class="st0" d="M14.7,8.3c0.5-0.2,0.7-0.2,0.9-0.2c0.1,0.1,0.3,0.2,0.3,0.3c0.1,0.2,0,0.4-0.2,0.9l-1.5,4.5
	c0,0.1-0.1,0.2-0.1,0.3S14,14.2,14,14.2c-0.1,0-0.1,0.1-0.3,0.1l-4.5,1.5C8.7,16,8.5,16,8.3,16C8.2,15.9,8,15.8,8,15.7
	c-0.1-0.2,0-0.4,0.2-0.9l1.5-4.5c0-0.1,0.1-0.2,0.1-0.3s0.1-0.1,0.1-0.1c0.1,0,0.1-0.1,0.3-0.1L14.7,8.3z"/>
</svg>
