<?xml version="1.0" encoding="utf-8"?>
<!-- Generator: Adobe Illustrator 27.5.0, SVG Export Plug-In . SVG Version: 6.00 Build 0)  -->
<svg version="1.1" id="Layer_1" xmlns="http://www.w3.org/2000/svg" xmlns:xlink="http://www.w3.org/1999/xlink" x="0px" y="0px"
	 viewBox="0 0 24 24" style="enable-background:new 0 0 24 24;" xml:space="preserve">
<style type="text/css">
	.st0{fill:none;stroke:#162B4D;stroke-width:2;stroke-linecap:round;stroke-linejoin:round;}
</style>
<path class="st0" d="M10.7,5.1C11.1,5,11.6,5,12,5c5.1,0,8.5,4.5,9.6,6.3c0.1,0.2,0.2,0.3,0.2,0.5c0,0.1,0,0.3,0,0.4
	c0,0.2-0.1,0.3-0.2,0.5c-0.3,0.5-0.8,1.1-1.4,1.9 M6.7,6.7c-2.2,1.5-3.6,3.5-4.3,4.6c-0.1,0.2-0.2,0.3-0.2,0.5c0,0.1,0,0.3,0,0.4
	c0,0.2,0.1,0.3,0.2,0.5C3.5,14.5,6.9,19,12,19c2.1,0,3.8-0.7,5.3-1.7 M3,3l18,18 M9.9,9.9C9.3,10.4,9,11.2,9,12c0,1.7,1.3,3,3,3
	c0.8,0,1.6-0.3,2.1-0.9"/>
</svg>
