<?xml version="1.0" encoding="utf-8"?>
<!-- Generator: Adobe Illustrator 27.5.0, SVG Export Plug-In . SVG Version: 6.00 Build 0)  -->
<svg version="1.1" id="Layer_1" xmlns="http://www.w3.org/2000/svg" xmlns:xlink="http://www.w3.org/1999/xlink" x="0px" y="0px"
	 viewBox="0 0 24 24" style="enable-background:new 0 0 24 24;" xml:space="preserve">
<style type="text/css">
	.st0{fill:none;stroke:#162B4D;stroke-width:2;stroke-linecap:round;stroke-linejoin:round;}
</style>
<path class="st0" d="M2.4,12.7c-0.1-0.2-0.2-0.3-0.2-0.5c0-0.1,0-0.3,0-0.4c0-0.2,0.1-0.3,0.2-0.5C3.5,9.5,6.9,5,12,5
	s8.5,4.5,9.6,6.3c0.1,0.2,0.2,0.3,0.2,0.5c0,0.1,0,0.3,0,0.4c0,0.2-0.1,0.3-0.2,0.5C20.5,14.5,17.1,19,12,19S3.5,14.5,2.4,12.7z"/>
<path class="st0" d="M12,15c1.7,0,3-1.3,3-3s-1.3-3-3-3s-3,1.3-3,3S10.3,15,12,15z"/>
</svg>
