<?xml version="1.0" encoding="utf-8"?>
<!-- Generator: Adobe Illustrator 27.5.0, SVG Export Plug-In . SVG Version: 6.00 Build 0)  -->
<svg version="1.1" id="Layer_1" xmlns="http://www.w3.org/2000/svg" xmlns:xlink="http://www.w3.org/1999/xlink" x="0px" y="0px"
	 viewBox="0 0 24 24" style="enable-background:new 0 0 24 24;" xml:space="preserve">
<style type="text/css">
	.st0{fill:#0D53FB;stroke:#0D53FB;stroke-width:2;stroke-linecap:round;stroke-linejoin:round;}
</style>
<path class="st0" d="M13,2.8c-0.4-0.3-0.5-0.4-0.7-0.5c-0.2,0-0.4,0-0.5,0c-0.2,0.1-0.4,0.2-0.7,0.5L4.2,8C3.8,8.4,3.6,8.6,3.4,8.8
	C3.2,9,3.1,9.2,3.1,9.4C3,9.7,3,10,3,10.6v7.2c0,1.1,0,1.7,0.2,2.1s0.5,0.7,0.9,0.9C4.5,21,5.1,21,6.2,21h2c0.3,0,0.4,0,0.5-0.1
	c0.1,0,0.2-0.1,0.2-0.2C9,20.6,9,20.5,9,20.2v-6.6c0-0.6,0-0.8,0.1-1.1c0.1-0.2,0.2-0.3,0.4-0.4C9.8,12,10,12,10.6,12h2.8
	c0.6,0,0.8,0,1.1,0.1c0.2,0.1,0.3,0.2,0.4,0.4C15,12.8,15,13,15,13.6v6.6c0,0.3,0,0.4,0.1,0.5c0,0.1,0.1,0.2,0.2,0.2
	c0.1,0.1,0.2,0.1,0.5,0.1h2c1.1,0,1.7,0,2.1-0.2s0.7-0.5,0.9-0.9c0.2-0.4,0.2-1,0.2-2.1v-7.2c0-0.6,0-0.9-0.1-1.1
	c-0.1-0.2-0.2-0.5-0.3-0.7c-0.2-0.2-0.4-0.4-0.8-0.7L13,2.8z"/>
</svg>
