<?xml version="1.0" encoding="utf-8"?>
<!-- Generator: Adobe Illustrator 27.5.0, SVG Export Plug-In . SVG Version: 6.00 Build 0)  -->
<svg version="1.1" id="Layer_1" xmlns="http://www.w3.org/2000/svg" xmlns:xlink="http://www.w3.org/1999/xlink" x="0px" y="0px"
	 viewBox="0 0 24 24" style="enable-background:new 0 0 24 24;" xml:space="preserve">
<style type="text/css">
	.st0{fill:none;stroke:#162B4D;stroke-width:2;stroke-linecap:round;stroke-linejoin:round;}
</style>
<path class="st0" d="M12,16v-4 M12,8L12,8 M7.8,21h8.4c1.7,0,2.5,0,3.2-0.3c0.6-0.3,1-0.7,1.3-1.3c0.3-0.6,0.3-1.5,0.3-3.2V7.8
	c0-1.7,0-2.5-0.3-3.2c-0.3-0.6-0.7-1-1.3-1.3C18.7,3,17.9,3,16.2,3H7.8C6.1,3,5.3,3,4.6,3.3c-0.6,0.3-1,0.7-1.3,1.3
	C3,5.3,3,6.1,3,7.8v8.4c0,1.7,0,2.5,0.3,3.2c0.3,0.6,0.7,1,1.3,1.3C5.3,21,6.1,21,7.8,21z"/>
</svg>
