<?xml version="1.0" encoding="utf-8"?>
<!-- Generator: Adobe Illustrator 27.5.0, SVG Export Plug-In . SVG Version: 6.00 Build 0)  -->
<svg version="1.1" id="Layer_1" xmlns="http://www.w3.org/2000/svg" xmlns:xlink="http://www.w3.org/1999/xlink" x="0px" y="0px"
	 viewBox="0 0 24 24" style="enable-background:new 0 0 24 24;" xml:space="preserve">
<style type="text/css">
	.st0{fill:none;stroke:#79859A;stroke-width:2;stroke-linecap:round;stroke-linejoin:round;}
</style>
<path class="st0" d="M21,12c0,5-4,9-9,9c-1.2,0-2.3-0.2-3.4-0.7c-0.2-0.1-0.3-0.1-0.4-0.1c-0.1,0-0.1,0-0.2,0c-0.1,0-0.2,0-0.4,0
	L4,20.8c-0.4,0.1-0.6,0.1-0.7,0c-0.1-0.1-0.2-0.1-0.3-0.3c-0.1-0.1,0-0.3,0-0.7l0.6-3.6c0-0.2,0-0.3,0-0.4c0-0.1,0-0.1,0-0.2
	c0-0.1-0.1-0.2-0.1-0.4C3.2,14.3,3,13.2,3,12c0-5,4-9,9-9S21,7,21,12z"/>
</svg>
