<?xml version="1.0" encoding="utf-8"?>
<!-- Generator: Adobe Illustrator 27.5.0, SVG Export Plug-In . SVG Version: 6.00 Build 0)  -->
<svg version="1.1" id="Layer_1" xmlns="http://www.w3.org/2000/svg" xmlns:xlink="http://www.w3.org/1999/xlink" x="0px" y="0px"
	 viewBox="0 0 24 24" style="enable-background:new 0 0 24 24;" xml:space="preserve">
<style type="text/css">
	.st0{fill:none;stroke:#0D53FB;stroke-width:2;stroke-linecap:round;stroke-linejoin:round;}
	.st1{fill:#0D53FB;stroke:#0D53FB;stroke-width:2;stroke-linecap:round;stroke-linejoin:round;}
</style>
<path class="st0" d="M22,21v-2c0-1.9-1.3-3.4-3-3.9 M15.5,3.3C17,3.9,18,5.3,18,7s-1,3.1-2.5,3.7"/>
<path class="st1" d="M17,21c0-1.9,0-2.8-0.3-3.5c-0.4-1-1.2-1.8-2.2-2.2C13.8,15,12.9,15,11,15H8c-1.9,0-2.8,0-3.5,0.3
	c-1,0.4-1.8,1.2-2.2,2.2C2,18.2,2,19.1,2,21H17z"/>
<circle class="st1" cx="9.5" cy="7" r="4"/>
</svg>
