<?xml version="1.0" encoding="utf-8"?>
<!-- Generator: Adobe Illustrator 27.5.0, SVG Export Plug-In . SVG Version: 6.00 Build 0)  -->
<svg version="1.1" id="Layer_1" xmlns="http://www.w3.org/2000/svg" xmlns:xlink="http://www.w3.org/1999/xlink" x="0px" y="0px"
	 viewBox="0 0 24 24" style="enable-background:new 0 0 24 24;" xml:space="preserve">
<style type="text/css">
	.st0{fill:#162B4D;stroke:#162B4D;stroke-miterlimit:10;}
</style>
<path class="st0" d="M10.5,12H5 M4.9,12.3l-2.3,7c-0.2,0.5-0.3,0.8-0.2,1c0.1,0.1,0.2,0.3,0.3,0.3c0.2,0,0.4-0.1,1-0.3l16.7-7.5
	c0.5-0.2,0.8-0.3,0.9-0.5c0.1-0.1,0.1-0.3,0-0.4c-0.1-0.2-0.3-0.3-0.9-0.5L3.7,3.7c-0.5-0.2-0.8-0.4-1-0.3c-0.2,0-0.3,0.2-0.3,0.3
	c-0.1,0.2,0,0.4,0.2,1l2.3,7.1c0,0.1,0,0.1,0.1,0.2v0.1C5,12.2,4.9,12.2,4.9,12.3z"/>
</svg>
