<?xml version="1.0" encoding="utf-8"?>
<!-- Generator: Adobe Illustrator 27.5.0, SVG Export Plug-In . SVG Version: 6.00 Build 0)  -->
<svg version="1.1" id="Layer_1" xmlns="http://www.w3.org/2000/svg" xmlns:xlink="http://www.w3.org/1999/xlink" x="0px" y="0px"
	 viewBox="0 0 24 24" style="enable-background:new 0 0 24 24;" xml:space="preserve">
<style type="text/css">
	.st0{fill:#0D53FB;stroke:#0D53FB;stroke-width:2;stroke-linecap:round;stroke-linejoin:round;}
	.st1{fill:#FFFFFF;stroke:#0D53FB;stroke-width:2;stroke-linecap:round;stroke-linejoin:round;}
</style>
<path class="st0" d="M9.4,19.4l0.6,1.3c0.2,0.4,0.5,0.7,0.8,1c0.4,0.2,0.8,0.4,1.2,0.4s0.8-0.1,1.2-0.4c0.4-0.2,0.6-0.6,0.8-1
	l0.6-1.3c0.2-0.5,0.6-0.9,1-1.1c0.4-0.3,1-0.4,1.5-0.3l1.4,0.2c0.4,0,0.9,0,1.2-0.2c0.4-0.2,0.7-0.5,0.9-0.9
	c0.2-0.4,0.3-0.8,0.3-1.2c0-0.4-0.2-0.8-0.4-1.2l-0.8-1.2c-0.3-0.4-0.5-0.9-0.5-1.4s0.2-1,0.5-1.4l0.8-1.2c0.3-0.3,0.4-0.8,0.4-1.2
	c0-0.4-0.1-0.9-0.3-1.2c-0.2-0.4-0.5-0.7-0.9-0.9C19.3,6,18.9,5.9,18.5,6l-1.4,0.2c-0.5,0.1-1-0.1-1.5-0.3c-0.4-0.3-0.8-0.6-1-1.1
	L14,3.3c-0.2-0.4-0.5-0.7-0.8-1C12.8,2.1,12.4,2,12,2s-0.8,0.1-1.2,0.4c-0.4,0.2-0.6,0.6-0.8,1L9.4,4.6c-0.2,0.5-0.6,0.9-1,1.1
	C8,6,7.4,6.1,6.9,6.1L5.5,5.9c-0.4,0-0.9,0-1.2,0.2C3.9,6.3,3.6,6.6,3.3,7C3.1,7.4,3,7.8,3,8.2S3.2,9,3.4,9.4l0.8,1.2
	C4.6,11,4.8,11.5,4.8,12s-0.2,1-0.5,1.4l-0.8,1.2c-0.3,0.3-0.4,0.8-0.4,1.2s0.1,0.9,0.3,1.2c0.2,0.4,0.5,0.7,0.9,0.9
	s0.8,0.3,1.2,0.2l1.4-0.2c0.5-0.1,1,0.1,1.5,0.3C8.8,18.5,9.2,18.9,9.4,19.4z"/>
<path class="st1" d="M12,15c1.7,0,3-1.3,3-3s-1.3-3-3-3s-3,1.3-3,3S10.3,15,12,15z"/>
</svg>
