<?xml version="1.0" encoding="utf-8"?>
<!-- Generator: Adobe Illustrator 27.5.0, SVG Export Plug-In . SVG Version: 6.00 Build 0)  -->
<svg version="1.1" id="Layer_1" xmlns="http://www.w3.org/2000/svg" xmlns:xlink="http://www.w3.org/1999/xlink" x="0px" y="0px"
	 viewBox="0 0 24 24" style="enable-background:new 0 0 24 24;" xml:space="preserve">
<style type="text/css">
	.st0{fill:#FDC400;stroke:#FDC400;stroke-width:2;stroke-linecap:round;stroke-linejoin:round;}
</style>
<path class="st0" d="M11.3,3.5c0.2-0.5,0.3-0.7,0.5-0.8c0.1-0.1,0.3-0.1,0.4,0c0.2,0.1,0.3,0.3,0.5,0.8l2.2,4.4
	C15,8,15,8.1,15.1,8.1c0,0,0.1,0.1,0.2,0.1c0.1,0,0.1,0,0.3,0.1L20.4,9c0.5,0.1,0.8,0.1,0.9,0.2c0.1,0.1,0.2,0.3,0.1,0.4
	c0,0.2-0.2,0.4-0.6,0.7l-3.5,3.4c-0.1,0.1-0.2,0.2-0.2,0.2c0,0.1-0.1,0.1-0.1,0.2c0,0.1,0,0.1,0,0.3l0.8,4.9c0.1,0.5,0.1,0.8,0,0.9
	c-0.1,0.1-0.2,0.2-0.3,0.3c-0.2,0-0.4-0.1-0.9-0.3L12.4,18c-0.1-0.1-0.2-0.1-0.3-0.1c-0.1,0-0.1,0-0.2,0c-0.1,0-0.1,0-0.3,0.1
	l-4.4,2.3c-0.5,0.2-0.7,0.4-0.9,0.3c-0.1,0-0.3-0.1-0.3-0.3c-0.1-0.2,0-0.4,0-0.9l0.8-4.9c0-0.2,0-0.2,0-0.3c0-0.1,0-0.1-0.1-0.2
	c0-0.1-0.1-0.1-0.2-0.2l-3.5-3.4C2.8,10,2.6,9.9,2.6,9.7c0-0.1,0-0.3,0.1-0.4C2.8,9.1,3.1,9.1,3.6,9l4.9-0.7c0.2,0,0.2,0,0.3-0.1
	c0.1,0,0.1-0.1,0.2-0.1C9,8.1,9,8,9.1,7.9L11.3,3.5z"/>
</svg>
