<?xml version="1.0" encoding="utf-8"?>
<!-- Generator: Adobe Illustrator 27.5.0, SVG Export Plug-In . SVG Version: 6.00 Build 0)  -->
<svg version="1.1" id="Layer_1" xmlns="http://www.w3.org/2000/svg" xmlns:xlink="http://www.w3.org/1999/xlink" x="0px" y="0px"
	 viewBox="0 0 24 24" style="enable-background:new 0 0 24 24;" xml:space="preserve">
<style type="text/css">
	.st0{fill:#FFFFFF;stroke:#0D53FB;stroke-width:2;stroke-linecap:round;stroke-linejoin:round;}
</style>
<path class="st0" d="M2,7l8.2,5.7c0.7,0.5,1,0.7,1.4,0.8c0.3,0.1,0.6,0.1,1,0c0.4-0.1,0.7-0.3,1.4-0.8L22,7 M6.4,20.6h11.2
	c1.8,0,2.7,0,3.4-0.4c0.6-0.3,1.1-0.8,1.4-1.4c0.4-0.7,0.4-1.6,0.4-3.4V8.6c0-1.8,0-2.7-0.4-3.4c-0.3-0.6-0.8-1.1-1.4-1.4
	c-0.7-0.4-1.6-0.4-3.4-0.4H6.4c-1.8,0-2.7,0-3.4,0.4C2.4,4.1,1.9,4.6,1.6,5.2C1.3,5.9,1.3,6.8,1.3,8.6v6.9c0,1.8,0,2.7,0.4,3.4
	c0.3,0.6,0.8,1.1,1.4,1.4C3.7,20.6,4.6,20.6,6.4,20.6z"/>
</svg>
